<svg id="SvgjsSvg1001" width="288" height="288" xmlns="http://www.w3.org/2000/svg" version="1.1" xmlns:xlink="http://www.w3.org/1999/xlink" xmlns:svgjs="http://svgjs.com/svgjs"><defs id="SvgjsDefs1002"></defs><g id="SvgjsG1008"><svg xmlns="http://www.w3.org/2000/svg" width="288" height="288" enable-background="new 0 0 123.7 123.7" viewBox="0 0 123.7 123.7"><path d="M23.298 44.5c-.1 0-.1 0-.2 0v73.2c0 3.3 2.7 6 6 6h65.5c3.3 0 6-2.7 6-6 0 0-.1-73.2-.2-73.2H23.298zM44.499 103c0 2.801-2.2 5-5 5-2.8 0-5-2.199-5-5V64.4c0-2.8 2.2-5 5-5 2.8 0 5 2.2 5 5V103zM66.898 103c0 2.801-2.2 5-5 5s-5-2.199-5-5V64.4c0-2.8 2.2-5 5-5s5 2.2 5 5V103zM89.298 103c0 2.801-2.199 5-5 5-2.799 0-5-2.199-5-5V64.4c0-2.8 2.201-5 5-5 2.801 0 5 2.2 5 5V103zM100.499 20.1h-5.4-5.4c-1.699 0-3-1.3-3-3V6.2c0-3.4-2.8-6.2-6.199-6.2H43.298c-3.4 0-6.2 2.8-6.2 6.2V17c0 1.7-1.3 3-3 3h-5.4-5.4c-3.4 0-6.2 2.8-6.2 6.2v2.1c0 3.4 2.7 6.1 6 6.2.1 0 .1 0 .2 0h77.1c.101 0 .101 0 .2 0 3.3-.1 6-2.8 6-6.2v-2.1C106.698 22.8 103.898 20.1 100.499 20.1zM76.398 20L76.398 20h-28.9l0 0v-6.6c0-1.7 1.4-3.1 3.1-3.1h22.699c1.701 0 3.101 1.4 3.101 3.1V20z" fill="#5480f1" class="color000 svgShape"></path></svg></g></svg>